<svg id="Layer_1" data-name="Layer 1" xmlns="http://www.w3.org/2000/svg" viewBox="0 0 360 360"><defs><style>.cls-1{fill:#22b5c4;}.cls-2{fill:#084929;}.cls-3{fill:#006837;}.cls-4{fill:#ccd875;}.cls-5{fill:#8f9147;}.cls-6{fill:#a9af5b;}.cls-7{fill:#72713b;}.cls-8{fill:none;stroke:#72713b;stroke-miterlimit:10;stroke-width:0.88px;}</style></defs><rect class="cls-1" width="359.95" height="359.95"/><polygon class="cls-2" points="203.57 181 45.94 144.31 42.31 156.99 55.79 288.02 195.42 316.56 314.33 259.82 317.69 257.55 298.36 121.14 294.63 118.02 203.57 181"/><polygon class="cls-3" points="45.94 144.31 174.36 165.38 289.24 120.14 294.63 118.02 314.33 255.44 196.1 311.27 59.52 283 45.94 144.31"/><path class="cls-4" d="M195.42,307.73,175,170.47C160.6,144.65,51,147,51,147l-1.7,2.72L63.6,281.14S142.42,289,195.42,307.73Z"/><path class="cls-5" d="M63.6,281.14s91.05-15.54,131.82,26.59C195.42,307.73,108.79,286.49,63.6,281.14Z"/><path class="cls-6" d="M175,170.47s46-43.15,114.24-46.88h2.38l19.36,130.12s-68,13.59-115.51,54Z"/><path class="cls-7" d="M195.42,307.73l115.51-54S239.25,240.68,195.42,307.73Z"/><path class="cls-8" d="M57.83,164.7S120,151.11,169.26,176.59"/><path class="cls-8" d="M60.88,184.06s77.12-12.23,109.74,6.46"/><path class="cls-8" d="M63.6,205.12s77.8-16.64,109.4,6.8"/><path class="cls-8" d="M189.62,225.83s54-42.18,104.3-40.28"/><path class="cls-8" d="M193,246.45S246,202.31,296,208.92"/><path class="cls-8" d="M199,272.89S241.12,230.66,301.26,236"/><path class="cls-7" d="M182.17,173.87l6.8,34s48.24-38.39,100.22-37.37l-5.44-34.65S250.46,126.64,182.17,173.87Z"/><path class="cls-5" d="M63.6,215.66l6.8,56s37-6.79,55-1.7l-4.85-60.66A204.8,204.8,0,0,0,63.6,215.66Z"/><path class="cls-8" d="M130.9,225.21A69.9,69.9,0,0,1,176.09,234"/><path class="cls-8" d="M130.9,244.76s30.17-7,49.23,11.16"/><path class="cls-8" d="M132.91,264.24s36-5.37,49.26,14.1"/><path class="cls-2" d="M85.61,127.36S158.15,5.71,252.91,95C252.91,95,170.35,38.57,85.61,127.36Z"/><path class="cls-2" d="M116.6,134.64s46.7-78.3,107.69-20.81C224.29,113.83,171.14,77.49,116.6,134.64Z"/></svg>