<svg id="Layer_1" data-name="Layer 1" xmlns="http://www.w3.org/2000/svg" viewBox="0 0 360 360"><defs><style>.cls-1{fill:#231c0c;}.cls-2{fill:#38662d;}.cls-3{fill:#683310;}.cls-4{fill:#f4b434;}.cls-5{fill:#27870f;}.cls-6{fill:#d38854;}.cls-7{fill:#af0e1a;}.cls-8{fill:#e5b59e;}</style></defs><rect class="cls-1" width="360" height="360"/><path class="cls-2" d="M164.45,241.31l-87-32.8a3.05,3.05,0,0,1-1.34-4.09l1.9-4.83c.67-1.71,2.38-2.68,2.42-3.72l87,32.8c2.79,2.11,3.39,4,2.72,5.67l-1.9,4.82A3.15,3.15,0,0,1,164.45,241.31Z"/><path class="cls-2" d="M260.48,277.53l-87-32.8c-1.41-.53-2-2.37-1.34-4.08l1.9-4.83a3.15,3.15,0,0,1,3.8-2.15l87,32.8a3.06,3.06,0,0,1,1.34,4.09l-1.9,4.83C263.61,277.1,261.9,278.07,260.48,277.53Z"/><path class="cls-3" d="M84.16,157s-27.45,20.83-8,34.24C94.48,203.78,254,262.75,274.05,270.13a32.76,32.76,0,0,0,4.88,1.39c11,2.24,34.89-8.92,13.09-32.27Z"/><polygon class="cls-4" points="91.44 179.42 110.03 198.78 139.84 179.02 91.44 179.42"/><polygon class="cls-4" points="276.56 230.89 253.16 252.68 235.85 217.02 276.56 230.89"/><path class="cls-5" d="M89.09,137s-20-23.33-27.13-14.67-23.08,36.3-6.08,36,18.76,19.18,22.63,19.15,24,4.88,31.59,3.38,29.24,5.78,32.81,18,15.08,10.85,27.58,9,55,25.59,55,25.59,13.69-7.27,23.13-6.09,27.8,33.48,32.33,33.81,18.77,7.19,26.87-12.39,29-25.35,20.16-27.26S304.19,215,304.19,215"/><path class="cls-6" d="M88.56,140.75l210.07,85s55.7-88.63-72.16-141.35S88.56,140.75,88.56,140.75Z"/><path class="cls-6" d="M63.63,196l220.58,86.66s-.75,19.28-20.71,23.87-212.81-86-212.81-86S45.93,192.19,63.63,196Z"/><path class="cls-7" d="M66.74,197.05s-16.8,2-4.4,8.74a68.31,68.31,0,0,0,26,7.37s19.46,20.39,29.44,17,25.4,2.94,25.4,2.94l28.45,6.5s44,28.82,51,30.31,15.3.28,18.34,1.92,23.39,17.94,23.39,17.94l12-12.07Z"/><path class="cls-8" d="M136.28,101.54l3.92,28.83,13.2-26.25S152.25,79.64,136.28,101.54Z"/><path class="cls-8" d="M195.46,103.6l-10.23,13.69,13.94-3.82S208.45,103,195.46,103.6Z"/><path class="cls-8" d="M275.5,187.3l14.52-18-19,4.22S258,187.23,275.5,187.3Z"/><path class="cls-8" d="M207.34,155.48l25.44,20.38-5.07-34.76S208.48,121.69,207.34,155.48Z"/><path class="cls-8" d="M263,124.8l-20.46,4.47,15.42,11S274.9,138.41,263,124.8Z"/></svg>