<svg id="Layer_1" data-name="Layer 1" xmlns="http://www.w3.org/2000/svg" viewBox="0 0 360 360"><defs><style>.cls-1{fill:#8c1818;}.cls-2{fill:#c4731c;}.cls-3{fill:#d8abcc;}.cls-4{fill:#e28617;}.cls-5,.cls-6{fill:none;stroke:#000;stroke-miterlimit:10;}.cls-5{stroke-width:1.51px;}</style></defs><rect class="cls-1" width="360" height="360"/><path class="cls-2" d="M258,203s49-87.49,43.34-111.84-104.27,46-104.27,46Z"/><path class="cls-3" d="M259.92,182.51s34.56-61.72,30.57-78.9-73.56,32.45-73.56,32.45Z"/><path class="cls-2" d="M102,203S53,115.49,58.62,91.14s104.27,46,104.27,46Z"/><path class="cls-3" d="M100.08,182.51s-34.56-61.72-30.57-78.9,73.56,32.45,73.56,32.45Z"/><ellipse class="cls-4" cx="182.23" cy="207.25" rx="97.66" ry="89"/><ellipse cx="146.66" cy="181.72" rx="11.35" ry="7.52"/><ellipse cx="216.49" cy="181.72" rx="11.35" ry="7.52"/><ellipse cx="182.23" cy="245.91" rx="16.52" ry="13.79"/><path class="cls-5" d="M150.09,273.06s17.8,26.32,32.78-1c0,0,12.24,25.19,31,1"/><line class="cls-6" x1="199.99" y1="237.21" x2="263.21" y2="209.52"/><line class="cls-6" x1="201.33" y1="244.27" x2="264.55" y2="244.27"/><line class="cls-6" x1="199.99" y1="252.27" x2="258.57" y2="267.54"/><line class="cls-6" x1="164.46" y1="238.68" x2="101.24" y2="210.99"/><line class="cls-6" x1="163.13" y1="245.75" x2="99.91" y2="245.75"/><line class="cls-6" x1="164.46" y1="253.75" x2="105.89" y2="269.02"/></svg>