<svg id="Layer_1" data-name="Layer 1" xmlns="http://www.w3.org/2000/svg" viewBox="0 0 360 360"><defs><style>.cls-1{fill:#c1726c;}.cls-2{fill:#1ad6bf;}</style></defs><rect class="cls-1" width="360" height="360"/><ellipse cx="180" cy="217.25" rx="116.9" ry="85.54" transform="translate(-54.77 60.78) rotate(-16.67)"/><ellipse class="cls-2" cx="180" cy="204.21" rx="116.9" ry="85.54" transform="translate(-51.03 60.24) rotate(-16.67)"/><polygon points="180 204.21 245.81 79.84 227.74 71.58 284 37 281.42 92.64 258.19 85 180 204.21"/><polygon points="180 204.74 132.52 142.36 117.47 153.14 96.64 78.81 156 131.45 141.29 135.28 180 204.74"/><path d="M78.93,142.62s-25.8-51.9-46.45-29.26c-11.06,12.13-4.66,22.58,3.1,23.75,13.84,2.08,10.78-11.29,13.42-10.33C54.67,128.85,78.93,142.62,78.93,142.62Z"/><path d="M67.12,152.73s-32.58-18-35.24,1.46c-1.43,10.45,5.68,13.47,10.29,11.43,7.25-3.2,1.59-9.9,3.34-10.35C49.26,154.29,67.12,152.73,67.12,152.73Z"/><path d="M285.83,128.53s39.22,17.61,29.42,77C315.25,205.51,344.45,130.52,285.83,128.53Z"/><path d="M311.43,124.75s30.92,13.88,23.19,60.67C334.62,185.42,357.64,126.32,311.43,124.75Z"/><path d="M49.39,260.2s10.32,54,56.26,52.41C105.65,312.61,47.84,328.56,49.39,260.2Z"/><path d="M39.31,283.85s7.49,39.14,40.81,38C80.12,321.87,38.19,333.43,39.31,283.85Z"/></svg>