<svg id="Layer_1" data-name="Layer 1" xmlns="http://www.w3.org/2000/svg" viewBox="0 0 360 360"><defs><style>.cls-1{fill:#000049;}.cls-2{fill:#12dbd6;}.cls-3{fill:#1bccb6;}.cls-4{fill:#19e0cd;}.cls-5{fill:#1ad6bf;}.cls-6{fill:#0e9e86;}.cls-7{fill:#0caf9b;}.cls-8{fill:#0c8775;}.cls-9{fill:#cec911;}</style></defs><rect class="cls-1" width="360" height="360"/><polygon class="cls-2" points="203.8 71.95 305.82 111.5 332.54 172.03 196.82 231.94 133.69 94.96 203.8 71.95"/><polygon class="cls-3" points="133.69 94.96 332.54 172.03 305.82 111.5 203.8 71.95 133.69 94.96"/><polygon class="cls-4" points="203.8 71.95 208.86 124.1 133.69 94.96 203.8 71.95"/><polygon class="cls-5" points="208.86 124.1 256.46 92.37 262.23 144.78 208.86 124.1"/><polygon class="cls-6" points="262.23 144.78 305.82 111.5 332.54 172.03 262.23 144.78"/><polygon class="cls-7" points="256.46 92.37 262.23 144.78 305.82 111.5 256.46 92.37"/><polygon class="cls-3" points="208.86 124.1 196.82 231.94 133.69 94.96 208.86 124.1"/><polygon class="cls-7" points="208.86 124.1 196.82 231.94 262.23 144.78 208.86 124.1"/><polygon class="cls-8" points="332.54 172.03 196.82 231.94 262.23 144.78 332.54 172.03"/><polygon class="cls-2" points="121.22 204.74 62.87 227.35 47.59 261.97 125.21 296.23 161.31 217.89 121.22 204.74"/><polygon class="cls-3" points="161.31 217.89 47.59 261.97 62.87 227.35 121.22 204.74 161.31 217.89"/><polygon class="cls-4" points="121.22 204.74 118.32 234.56 161.31 217.89 121.22 204.74"/><polygon class="cls-5" points="118.32 234.56 91.1 216.41 87.8 246.38 118.32 234.56"/><polygon class="cls-6" points="87.8 246.38 62.87 227.35 47.59 261.97 87.8 246.38"/><polygon class="cls-7" points="91.1 216.41 87.8 246.38 62.87 227.35 91.1 216.41"/><polygon class="cls-3" points="118.32 234.56 125.21 296.23 161.31 217.89 118.32 234.56"/><polygon class="cls-7" points="118.32 234.56 125.21 296.23 87.8 246.38 118.32 234.56"/><polygon class="cls-8" points="47.59 261.97 125.21 296.23 87.8 246.38 47.59 261.97"/><polygon class="cls-9" points="58.36 105.72 60.28 78.6 71.45 104.85 97.25 104.85 75.27 115.86 75.27 147.5 62.1 120.15 33.68 119.78 58.36 105.72"/><polygon class="cls-9" points="265.55 266.21 288.19 251.15 274.25 276.03 290.02 296.45 267.86 285.79 242.83 305.13 256.42 277.99 239.34 255.27 265.55 266.21"/></svg>