<svg id="Layer_1" data-name="Layer 1" xmlns="http://www.w3.org/2000/svg" viewBox="0 0 360 360"><defs><style>.cls-1{fill:#002c6d;}.cls-2{fill:#d62121;}.cls-3{fill:#913c0d;}.cls-4{fill:#e0946e;}.cls-5{fill:#aa410c;}.cls-6{fill:#0a0909;}</style></defs><rect class="cls-1" width="360" height="360"/><path class="cls-2" d="M117,266,97.67,297s-11.6,32.08,24,15.26,29.67-29.46,29.67-29.46"/><ellipse class="cls-3" cx="254.68" cy="108.69" rx="63.96" ry="51.52" transform="translate(3.07 224.3) rotate(-47.79)"/><ellipse class="cls-4" cx="250.5" cy="119.25" rx="51.62" ry="41.58" transform="translate(-6.13 224.67) rotate(-47.79)"/><ellipse class="cls-3" cx="108.04" cy="104.71" rx="51.52" ry="63.96" transform="translate(-42.33 99.74) rotate(-42.21)"/><ellipse class="cls-4" cx="112.22" cy="115.28" rx="41.58" ry="51.62" transform="translate(-48.35 105.29) rotate(-42.21)"/><ellipse class="cls-3" cx="179.18" cy="208.25" rx="97.66" ry="89"/><ellipse class="cls-5" cx="276.84" cy="113.13" rx="51.52" ry="63.96" transform="translate(-22.16 119.25) rotate(-23.4)"/><ellipse class="cls-5" cx="85.89" cy="109.15" rx="63.96" ry="51.52" transform="translate(-48.4 144.63) rotate(-66.6)"/><ellipse class="cls-6" cx="179.18" cy="256.44" rx="24.79" ry="20.61"/><ellipse cx="142.33" cy="191.13" rx="9.36" ry="15.73"/><ellipse cx="215.11" cy="191.13" rx="9.36" ry="15.73"/></svg>