<svg id="Layer_1" data-name="Layer 1" xmlns="http://www.w3.org/2000/svg" viewBox="0 0 360 360"><defs><style>.cls-1{fill:#322233;}.cls-2{fill:#ba6f58;}.cls-3{fill:#4153aa;}.cls-4{fill:#cecc78;}.cls-5{fill:#5e2182;}.cls-6{fill:#2856a0;}.cls-7{fill:#d8d06f;}.cls-8{fill:#42669b;}</style></defs><rect class="cls-1" width="360" height="360"/><ellipse class="cls-2" cx="65.52" cy="75.07" rx="16.68" ry="25.45" transform="translate(-25.53 115.54) rotate(-72.85)"/><ellipse class="cls-2" cx="97.29" cy="58.4" rx="25.45" ry="16.68" transform="translate(12.81 134.15) rotate(-72.85)"/><ellipse class="cls-2" cx="114.16" cy="90.07" rx="16.68" ry="25.45" transform="translate(-5.57 172.6) rotate(-72.85)"/><ellipse class="cls-2" cx="82.32" cy="106.94" rx="25.45" ry="16.68" transform="translate(-44.14 154.07) rotate(-72.85)"/><ellipse class="cls-3" cx="89.85" cy="82.52" rx="14.2" ry="15.84" transform="translate(-15.49 144.05) rotate(-72.85)"/><ellipse class="cls-2" cx="198.98" cy="313.32" rx="17.34" ry="11.36" transform="translate(-112.82 111.96) rotate(-24.73)"/><ellipse class="cls-2" cx="207.52" cy="290.41" rx="11.36" ry="17.34" transform="translate(-102.45 113.43) rotate(-24.73)"/><ellipse class="cls-2" cx="230.47" cy="298.81" rx="17.34" ry="11.36" transform="translate(-103.86 123.81) rotate(-24.73)"/><ellipse class="cls-2" cx="221.99" cy="321.84" rx="11.36" ry="17.34" transform="translate(-114.27 122.37) rotate(-24.73)"/><ellipse class="cls-3" cx="214.71" cy="306.03" rx="10.79" ry="9.67" transform="translate(-108.33 117.87) rotate(-24.73)"/><ellipse class="cls-2" cx="283.28" cy="139.31" rx="12.74" ry="19.44" transform="translate(-26.14 201.88) rotate(-37.62)"/><ellipse class="cls-2" cx="310.45" cy="142.91" rx="19.44" ry="12.74" transform="translate(-22.69 219.21) rotate(-37.62)"/><ellipse class="cls-2" cx="307.01" cy="170.1" rx="12.74" ry="19.44" transform="translate(-40 222.76) rotate(-37.62)"/><ellipse class="cls-2" cx="279.72" cy="166.6" rx="19.44" ry="12.74" transform="translate(-43.54 205.37) rotate(-37.62)"/><ellipse class="cls-3" cx="295.18" cy="154.68" rx="10.84" ry="12.1" transform="translate(-33.05 212.33) rotate(-37.62)"/><ellipse class="cls-4" cx="233.76" cy="62.04" rx="19.7" ry="12.91" transform="translate(-7.14 83.49) rotate(-19.95)"/><ellipse class="cls-4" cx="245.6" cy="36.92" rx="12.91" ry="19.7" transform="translate(2.14 86.02) rotate(-19.95)"/><ellipse class="cls-4" cx="270.79" cy="48.6" rx="19.7" ry="12.91" transform="translate(-0.33 95.32) rotate(-19.95)"/><ellipse class="cls-4" cx="259.01" cy="73.88" rx="12.91" ry="19.7" transform="translate(-9.66 92.82) rotate(-19.95)"/><ellipse class="cls-5" cx="252.26" cy="55.28" rx="12.26" ry="10.99" transform="translate(-3.72 89.4) rotate(-19.95)"/><ellipse class="cls-4" cx="57.11" cy="262.08" rx="15.63" ry="23.85" transform="translate(-129.75 69.64) rotate(-31.86)"/><ellipse class="cls-4" cx="89.84" cy="269.82" rx="23.85" ry="15.63" transform="translate(-128.9 88.09) rotate(-31.86)"/><ellipse class="cls-4" cx="82.29" cy="302.6" rx="15.63" ry="23.85" transform="translate(-147.34 89.04) rotate(-31.86)"/><ellipse class="cls-4" cx="49.4" cy="294.95" rx="23.85" ry="15.63" transform="translate(-148.27 70.53) rotate(-31.86)"/><ellipse class="cls-5" cx="69.74" cy="282.31" rx="13.31" ry="14.84" transform="translate(-138.53 79.36) rotate(-31.86)"/><ellipse cx="179.83" cy="188.44" rx="14.76" ry="16.46" transform="translate(-80.55 181.37) rotate(-44.78)"/><ellipse class="cls-6" cx="144.5" cy="188.44" rx="23.12" ry="35.28" transform="translate(-44.49 332.22) rotate(-89.78)"/><ellipse class="cls-6" cx="179.9" cy="153.51" rx="35.28" ry="23.12" transform="translate(25.71 332.83) rotate(-89.78)"/><ellipse class="cls-6" cx="215.05" cy="188.71" rx="23.12" ry="35.28" transform="translate(25.53 403.04) rotate(-89.78)"/><ellipse class="cls-6" cx="179.64" cy="223.92" rx="35.28" ry="23.12" transform="translate(-44.96 402.71) rotate(-89.78)"/><ellipse class="cls-7" cx="179.77" cy="188.5" rx="19.68" ry="21.95" transform="translate(-9.41 367.56) rotate(-89.78)"/><ellipse cx="307.05" cy="283.51" rx="5.36" ry="5.98" transform="translate(-90.67 155.15) rotate(-24.83)"/><ellipse class="cls-8" cx="294.99" cy="279.13" rx="8.4" ry="12.81" transform="translate(-68.74 459.79) rotate(-69.83)"/><ellipse class="cls-8" cx="311.4" cy="271.6" rx="12.81" ry="8.4" transform="translate(-50.91 470.26) rotate(-69.83)"/><ellipse class="cls-8" cx="319.03" cy="287.97" rx="8.4" ry="12.81" transform="translate(-61.27 488.15) rotate(-69.83)"/><ellipse class="cls-8" cx="302.58" cy="295.6" rx="12.81" ry="8.4" transform="translate(-79.21 477.71) rotate(-69.83)"/><ellipse class="cls-7" cx="307.02" cy="283.52" rx="7.15" ry="7.97" transform="translate(-64.98 473.96) rotate(-69.83)"/><ellipse cx="40.22" cy="184.03" rx="5.36" ry="5.98" transform="translate(-147.65 170.29) rotate(-73.49)"/><ellipse class="cls-8" cx="28.97" cy="190.19" rx="12.81" ry="8.4" transform="translate(-87.21 36.85) rotate(-28.49)"/><ellipse class="cls-8" cx="34.15" cy="172.89" rx="8.4" ry="12.81" transform="translate(-78.33 37.23) rotate(-28.49)"/><ellipse class="cls-8" cx="51.48" cy="177.97" rx="12.81" ry="8.4" transform="translate(-78.66 46.11) rotate(-28.49)"/><ellipse class="cls-8" cx="46.35" cy="195.36" rx="8.4" ry="12.81" transform="translate(-87.57 45.76) rotate(-28.49)"/><ellipse class="cls-7" cx="40.21" cy="184.06" rx="7.97" ry="7.15" transform="translate(-82.93 41.47) rotate(-28.49)"/></svg>