<svg id="Layer_1" data-name="Layer 1" xmlns="http://www.w3.org/2000/svg" viewBox="0 0 360 360"><defs><style>.cls-1{fill:#473c2c;}.cls-2{fill:#683310;}.cls-3{fill:#f4b434;}.cls-4{fill:#38662d;}.cls-5{fill:#27870f;}.cls-6{fill:#d38854;}.cls-7{fill:#af0e1a;}.cls-8{fill:#e5b59e;}.cls-9{fill:#966645;}.cls-10{fill:#992929;}.cls-11,.cls-13{fill:none;stroke-miterlimit:10;}.cls-11{stroke:#ff0;stroke-width:2.67px;}.cls-12{fill:#c68254;}.cls-13{stroke:#721616;stroke-width:2px;}.cls-14{fill:#916b3d;}.cls-15{fill:#e0b12b;}.cls-16{fill:#b72718;}.cls-17{fill:#7c4845;}</style></defs><rect class="cls-1" width="360" height="360"/><path class="cls-2" d="M164.32,180.68s-7.39,21.47,8.21,21.66c14.61.19,123.63-26,137.3-29.33a21.06,21.06,0,0,0,3.18-1c6.86-2.81,15.84-17.68-4.66-22.47Z"/><polygon class="cls-3" points="176.17 188.33 193.46 192.12 202.53 170.36 176.17 188.33"/><polygon class="cls-3" points="296.45 148.63 291.62 169.15 269.06 155.96 296.45 148.63"/><path class="cls-4" d="M238.86,195.45,179.2,209.38a2,2,0,0,1-2.23-1.75l-.73-3.34a2.09,2.09,0,0,1,1.29-2.57l59.66-13.92a2,2,0,0,1,2.23,1.74l.73,3.34A2.08,2.08,0,0,1,238.86,195.45Z"/><path class="cls-4" d="M304.75,180.07,245.08,194a2,2,0,0,1-2.23-1.75l-.73-3.34a2.07,2.07,0,0,1,1.29-2.56l59.66-13.93a2,2,0,0,1,2.24,1.74l.73,3.35A2.07,2.07,0,0,1,304.75,180.07Z"/><path class="cls-5" d="M159.33,166s-19.49-5.46-20.24,1.91.66,28.35,9.85,21.93,17.31,3.62,19.42,2.18,14.93-6.12,18.54-9.73,18.13-7.56,24.59-2.15,12.24.41,18.41-5.17,39.54-6.17,39.54-6.17,4.83-9,10.43-11.82,27.51,8.14,30.11,6.66,12.92-3,10.18-16.64,6.57-24.52,1-22.33-15.43,5.2-15.43,5.2"/><path class="cls-6" d="M160.41,168.21l146.24-30.48s-2-69-91.36-51S160.41,168.21,160.41,168.21Z"/><path class="cls-6" d="M167,207.61l152.6-33.43S326.28,185,317,194.85s-148.12,30.92-148.12,30.92S155.93,212,167,207.61Z"/><path class="cls-7" d="M169.11,207.05s-8.45,7.27.8,6.4A45.14,45.14,0,0,0,186.83,208s18.13,4,22.37-1.46,15-7.7,15-7.7l18-6.88s34.69-.37,39.06-2.11,8.48-5.46,10.74-5.67,19.39,1.25,19.39,1.25l2.14-11Z"/><path class="cls-8" d="M172.17,129.23l12.72,14.35-2.4-19.22S172.89,111.38,172.17,129.23Z"/><path class="cls-8" d="M205.34,108.66l-.58,11.24,6.23-7.2S212.23,103.55,205.34,108.66Z"/><path class="cls-8" d="M279.88,125.14,281.24,110l-8.84,9.27S270.25,131.54,279.88,125.14Z"/><path class="cls-8" d="M230.87,132.71l21.41,1.84-15.52-17.19S219.11,113.79,230.87,132.71Z"/><path class="cls-8" d="M250.11,95.49l-9.56,10,12.47.35S261.62,98.58,250.11,95.49Z"/><path class="cls-9" d="M147.76,157.35S274.91,213,306.19,233.79c14,9.31-40.19,54.73-117.85,2.07S147.76,157.35,147.76,157.35Z"/><path class="cls-10" d="M124.37,152.13s137.55,69.26,166.06,80.68,11.14,39.44-12.84,28.84c-19.36-8.57-112.9-56.2-148.28-74.26-10.85-5.54-17.4-16.11-16.33-27.17C113.57,154.12,116.4,149.62,124.37,152.13Z"/><path class="cls-11" d="M120.07,154.77s23.52,4,26.69,7.67,4.49,12.6,11.88,14.16,38,8,40.87,13.61S206.79,206,216.87,207s33.35,1.7,34.43,9.24,11.42,16.39,17.61,16.92S298,236.28,297,239.21"/><path class="cls-12" d="M119.16,169.08s132.11,56.28,164.65,77.27c14.54,9.39-41.4,54.57-122.18,1.5S119.16,169.08,119.16,169.08Z"/><polyline class="cls-13" points="300.81 247.5 302.47 255.68 293.69 256.3"/><path class="cls-14" d="M20.85,139.65S93.74,74.32,154,78.23c33,2.14,14.28,19.8,0,24.39-15.42,4.94-105.81,53.17-119.23,64.49S9.49,159.18,20.85,139.65Z"/><path class="cls-15" d="M28.61,170.31s24.24,7,24.24,13.22-2.07,34,3.61,32.79,8.26-16.17,10.32-12.58-5.16,78.28,2.07,74,7.74-55.12,9.29-57.58,18,25.34,16.21,33.63,10.11,16.33,13.21,13.85,11.35-.37,19.61,14.06,28.39,15,30.45,15.51,9.81,9.25,18.58,17.51,18.39,23.86,21.79-.51c3.1-22.2-4.1-13.49-1.45-22.2,2.3-7.54,1.86-13.12-1.24-21.27s-8.77-30.88-10.84-48.93,3.61-31.11-4.13-57.87S167.39,95,167.39,95L83.3,109.79Z"/><ellipse class="cls-16" cx="81.12" cy="158.43" rx="16.72" ry="12.05" transform="translate(-17.03 9.95) rotate(-6.35)"/><ellipse class="cls-16" cx="163.69" cy="196.98" rx="13.26" ry="18.39" transform="translate(-67.22 307.77) rotate(-75.9)"/><ellipse class="cls-16" cx="136.21" cy="253.89" rx="18.39" ry="13.26" transform="translate(-100.8 90.07) rotate(-27.13)"/><ellipse class="cls-16" cx="146.2" cy="126.28" rx="16.01" ry="22.2" transform="translate(-11.88 237.33) rotate(-75.9)"/><path class="cls-17" d="M127.81,219.85l-15.16-8.52A40.33,40.33,0,0,0,108,226.75c-.63,8.48-21.15-8.64-7.25-29.78s26.87-4.82,26.87-4.82l-10.69,12.43,14.54,7.68Z"/><path class="cls-17" d="M166.19,264.05l8.59,5.7a24,24,0,0,0,3.42-8.9c.75-5,12.13,6,3,17.92s-16.1,1.67-16.1,1.67l6.87-6.88-8.26-5.18Z"/><path class="cls-17" d="M150.81,163.8l.51-7.19a15,15,0,0,0-6.24,1.09c-3.1,1.31-.44-9.44,9.35-8.14s6.16,9.11,6.16,9.11l-6.17-1.7-.32,6.81Z"/><path class="cls-17" d="M107.74,136.47,102,132.81a15.65,15.65,0,0,0-2.15,5.95c-.43,3.31-8.12-3.84-2.22-11.84s10.65-1.32,10.65-1.32l-4.46,4.65,5.54,3.32Z"/></svg>