<svg id="Layer_1" data-name="Layer 1" xmlns="http://www.w3.org/2000/svg" viewBox="0 0 360 360"><defs><style>.cls-1{fill:#91a1c1;}.cls-2{fill:#3f3f3f;}.cls-3{fill:#26262d;}.cls-4{fill:#22b573;stroke:#26262d;stroke-miterlimit:10;stroke-width:1.34px;}.cls-5{fill:#999;}.cls-6{fill:#8acea7;}.cls-7{fill:#aaa768;}.cls-8{fill:#ce5b49;}.cls-9{fill:#315a66;}</style></defs><rect class="cls-1" x="1.5" y="0.23" width="360" height="360"/><polygon points="181.82 136.46 196.9 128.11 222.83 139.54 222.83 158.51 181.82 136.46"/><path d="M113.36,112.7s26.27-27.62,46.27,5.81,2.34,9.92,2.34,9.92Z"/><path d="M287.56,154.71s33.88,4.32,32,31.38a5.94,5.94,0,0,1-5.13,5.4l-2.28.32Z"/><path d="M318.06,184.6l-1.67,23.75a4.21,4.21,0,0,1-4.37,3.93c-5.18-.23-15.81,1.42-34.45,12.66l40.49-40.34"/><path class="cls-2" d="M200.69,239.24c-39,16.11-41.58-16.63-41.58-16.63s-15.59,5.72-31.7,1.56-14.55-24.95-14.55-24.95-8.31,25.47-39,49.47S17.76,245,35.43,200.26,97.27,126,97.27,126c43.51-42.2,58.21-9.87,66.52-3.12S226.67,153.49,270.32,153s51.66,28,46.25,42.1c-4.47,11.68-14.55,13.51-31.18,22.86s-9.35,33.26-48.33,76.39c-20.3,22.47-42.58,40.15-58.2,31.7-19.23-10.39-11.11-41.7-2.08-56.64,11.38-18.82,29.19-38.83,34.3-40.54Z"/><path class="cls-3" d="M112.86,199.22v-6.74s4.16,39,48.59,22.07c0,0,14,38.16,49.63,12.22h0l-4.53,6.28-7.29,6.76s-31.57,16.06-40.15-17.2C159.11,222.61,113.12,239.24,112.86,199.22Z"/><path class="cls-3" d="M300,210.4s-.16.46-5,3.11c-6.63,3.68-19,11.44-24.15,26.87-9.45,28.46-58.78,97-89,86.91,0,0,55.77-48.8,63.56-58.58s22.08-55.46,34.81-58.31c0,0,21.05-6.5,25.21-10.14S318.79,183.67,317,178.9C317,178.9,324.66,203.38,300,210.4Z"/><ellipse class="cls-4" cx="186.5" cy="162.29" rx="11.15" ry="14.1" transform="translate(-3.21 320.82) rotate(-80.91)"/><path class="cls-3" d="M42.13,254.94s23.44,1.45,29.68-13.1,34.3-53.76,41.05-49.36c0,0,1.56,7-1,12.46-4.43,9.31-12.4,23.16-34.33,40.84C53.09,265.44,42.13,254.94,42.13,254.94Z"/><path d="M142,136.41c-2.83-3.91-9-6.63-16.17-6.63s-13.34,2.72-16.18,6.63h1L108,140.17c0,6.31,8,12.48,17.85,12.48,12.75,0,17.84-7.12,17.84-13.43l-4-2.81Z"/><ellipse class="cls-5" cx="125.83" cy="139.54" rx="17.84" ry="11.43"/><path d="M205,212.44c-2.84-3.92-9-6.63-16.18-6.63s-13.34,2.71-16.17,6.63h1L171,216.19c0,6.32,8,12.48,17.84,12.48,12.76,0,17.85-7.11,17.85-13.43l-4-2.8Z"/><ellipse class="cls-5" cx="188.86" cy="215.57" rx="17.84" ry="11.43"/><polygon points="121.59 192.5 121.59 193.47 132.08 198.31 136.07 200.2 122.85 205.6 122.85 206.67 133 210.22 141.83 202.92 152.44 207.93 160.94 199.75 160.94 198.42 121.59 192.5"/><polygon points="157.65 189.8 157.65 188.99 143.86 192.68 150.15 196.37 157.65 189.8"/><polygon class="cls-5" points="160.94 198.42 150.54 194.76 157.65 188.99 148.63 185.26 140.88 191.37 129.66 187.43 121.59 192.5 132.86 197.7 122.85 205.6 133.12 208.92 141.83 201.84 152.27 206.67 160.94 198.42"/><path d="M248.63,177.43c-1.3-1.8-4.14-3.05-7.44-3.05s-6.13,1.25-7.43,3.05h.46L233,179.16c0,2.9,3.67,5.74,8.2,5.74,5.87,0,8.21-3.28,8.21-6.18l-1.86-1.29Z"/><ellipse class="cls-6" cx="241.19" cy="178.87" rx="8.2" ry="5.26"/><path d="M270.55,175c-1.31-1.79-4.14-3-7.44-3s-6.13,1.25-7.44,3h.47l-1.23,1.73c0,2.91,3.67,5.74,8.2,5.74,5.87,0,8.2-3.27,8.2-6.18L269.46,175Z"/><ellipse class="cls-7" cx="263.11" cy="176.45" rx="8.2" ry="5.26"/><path d="M274.49,189.83c-1.3-1.8-4.14-3.05-7.43-3.05s-6.14,1.25-7.44,3.05h.47l-1.24,1.73c0,2.9,3.68,5.73,8.21,5.73,5.86,0,8.2-3.27,8.2-6.17l-1.85-1.29Z"/><ellipse class="cls-8" cx="267.06" cy="191.27" rx="8.2" ry="5.26"/><path d="M251.41,191.85c-1.3-1.8-4.14-3-7.43-3s-6.14,1.25-7.44,3H237l-1.24,1.73c0,2.9,3.68,5.74,8.21,5.74,5.86,0,8.2-3.28,8.2-6.18l-1.85-1.29Z"/><ellipse class="cls-9" cx="243.98" cy="193.29" rx="8.2" ry="5.26"/><path d="M199.71,132.41s60-17.69,33.28-40.14-65.86-40.6-51.12-44.63c23.39-6.39,90.21-3.58,105.69,17.19l-15.48-2c-5.06-2.06-85.58-16.66-65.37-4.18C224,69.33,263.45,103,256.12,111.9s-45.28,29.31-45.28,29.31"/><polygon points="273.12 59.01 272.46 68.09 282.97 78.19 306.18 98.52 322.9 79.85 291.19 54.65 272.46 54.03 273.12 59.01"/><polygon class="cls-5" points="306.18 98.52 302.95 90.99 318.29 76.19 322.9 79.85 306.18 98.52"/><path d="M76.42,104.76S97.06,49.37,144.64,77.1C144.64,77.1,102.36,65.18,76.42,104.76Z"/><path d="M290.58,277.84s7.62,58.61-47.4,56.32C243.18,334.16,286.13,325,290.58,277.84Z"/></svg>