<svg id="Layer_1" data-name="Layer 1" xmlns="http://www.w3.org/2000/svg" viewBox="0 0 360 360"><defs><style>.cls-1{fill:#09b3ce;}.cls-2{fill:#0bc5d8;}.cls-3{fill:#00562b;}.cls-4{fill:#006837;}.cls-5{fill:#01773c;}.cls-6{fill:#068442;}.cls-7{fill:#fff;}.cls-8{fill:#003319;}</style></defs><rect class="cls-1" width="360" height="360"/><path class="cls-2" d="M277.28,70s28,27.8,25.81,86.19C303.09,156.19,327.35,88.58,277.28,70Z"/><path class="cls-2" d="M277.28,36.56s62.59,47.72,40.78,142.66C318.06,179.22,356.39,67.31,277.28,36.56Z"/><ellipse class="cls-3" cx="182" cy="136.94" rx="109.33" ry="89.95"/><ellipse class="cls-4" cx="182" cy="161.58" rx="103.45" ry="89.95"/><ellipse class="cls-5" cx="182" cy="201.44" rx="92.92" ry="80.8"/><ellipse class="cls-6" cx="182" cy="249.26" rx="87.66" ry="76.22"/><path class="cls-7" d="M268.76,260.18C177.88,327.85,95.57,262,95.57,262l-2.74,16,17.63-3.75,3.17,17.91,15.9-7.22,13,16.47,13.58-11,11.56,16.76,9.25-14.16,14.16,12.71L198,291.34l20.52,10.11,9-14.74,12.42,6.65,3.47-14.45,16.84,4.79.5-14.33,14.2,8.09Z"/><path d="M279,115.44c9.33,4.48-5.9,14-13.17,14-6.55,0-12-5.07-13-11.7-.21-1.36,1-2.65,2.86-3.12C260.71,113.35,271,111.61,279,115.44Z"/><ellipse class="cls-8" cx="147.59" cy="226.9" rx="10.26" ry="4.77"/><ellipse class="cls-8" cx="212.61" cy="226.9" rx="10.26" ry="4.77"/><path d="M86.37,115.44c-9.33,4.48,5.9,14,13.17,14,6.55,0,12-5.07,13-11.7.2-1.36-1-2.65-2.87-3.12C104.65,113.35,94.36,111.61,86.37,115.44Z"/></svg>