<svg id="Layer_1" data-name="Layer 1" xmlns="http://www.w3.org/2000/svg" viewBox="0 0 360 360"><defs><style>.cls-1{fill:#4c020e;}.cls-2{fill:#1c1c1c;}.cls-3{fill:#d60000;}.cls-4{fill:#7c0808;}.cls-5{fill:none;stroke:#fff;stroke-miterlimit:10;stroke-width:1.15px;}.cls-6{fill:#efac35;}</style></defs><rect class="cls-1" width="360" height="360"/><polygon points="195.82 198.45 201.59 200.48 300.85 63.08 323.74 52.57 323.74 50 299.34 51.02 187.05 189.52 195.82 198.45"/><polygon class="cls-2" points="173.1 177.76 280.21 44.35 285.46 22.28 323.74 50 297.91 62.52 198.05 200.48 173.1 177.76"/><path d="M287,80.86c.44,0,7.42,13.58,7.42,13.58l10.77-14.33v-2.6l-7.95-2Z"/><polygon points="294.81 67.57 295.45 68.98 308.22 74.17 318.39 68.53 318.1 66.38 303.47 66.08 294.81 67.57"/><polygon class="cls-2" points="292.04 70.55 305.18 77.52 294.49 91.38 286.45 78.2 292.04 70.55"/><polygon class="cls-2" points="297.91 62.52 318.1 66.38 308 72.17 294.34 67.41 297.91 62.52"/><polygon points="266.42 35.2 266.42 37.5 274.49 51.45 276.29 49.22 269.1 35.2 266.42 35.2"/><polygon class="cls-2" points="273.32 53.13 262.09 45 258.68 57.02 267.24 60.37 273.32 53.13"/><polygon class="cls-2" points="275.12 50.66 266.42 35.2 275.33 32.52 280.21 44.35 275.12 50.66"/><polygon class="cls-3" points="280.21 44.35 300.24 61.4 307.42 57.91 282.12 36.35 280.21 44.35"/><polygon points="258.68 57.02 259 59.1 265.74 62.3 268.75 58.57 258.68 57.02"/><path class="cls-3" d="M136.57,192s-1.33-49.78,33.25-60.66,3.31,41.5,3.31,41.5,21.67,30.29,36.7,28.28,41.19-27.29,47.86-12.58-22.36,38.84-33.58,43.7-41.79,58.52-57,66.33c-14.72,7.57-76.48,19.17-77.24-36C89.24,214.73,136.57,192,136.57,192Z"/><path class="cls-4" d="M102.36,294.63s38,4.05,49.88.71c26.14-7.35,35.23-40.19,40.24-47.37,5.9-8.45,15.66-13.81,26.13-21.38s26.13-17.32,31-22.86c5.65-6.39,8.05-15.19,8.05-15.19s5.77,9.21-3.15,19.94-15.75,21.25-31.77,29.4c-11.23,5.7-29.92,34.39-35.84,42.44-1.13,1.54-2.2,3.13-3.19,4.78-3.28,5.44-15.38,20.28-39.48,20.82C110.49,306.67,102.36,294.63,102.36,294.63Z"/><ellipse cx="144.81" cy="240.13" rx="34.52" ry="24.59" transform="translate(-134.9 220.23) rotate(-54.84)"/><polygon points="101.59 262.82 134.57 285.7 124.87 290.66 98.49 269.69 101.59 262.82"/><path class="cls-4" d="M173.13,172.84s-3.81-2.11-2.92-6.35,11.55-26.45,12.23-35.66c0,0,10.74,2.48-.09,25.91C173.68,175.52,173.13,172.84,173.13,172.84Z"/><polygon class="cls-2" points="101.59 262.82 99.81 266.77 124.55 287.43 131.97 283.9 101.59 262.82"/><line class="cls-5" x1="107.4" y1="270.84" x2="284.24" y2="48.56"/><line class="cls-5" x1="112.83" y1="274.34" x2="287.58" y2="51.02"/><line class="cls-5" x1="117.87" y1="279.08" x2="291.81" y2="53.91"/><line class="cls-5" x1="123.21" y1="282.42" x2="296.05" y2="57.91"/><polygon class="cls-6" points="76.14 242.09 27.46 184.8 78.14 192.13 52.79 60.02 97.57 178.49 103.58 143.44 113.96 178.1 89.83 201.46 76.14 242.09"/><polygon class="cls-6" points="216.93 271.84 258.08 273.13 226.09 283.63 256.31 311.93 206.89 305.04 227.62 348.56 187.05 310.08 206.75 289.26 216.93 271.84"/></svg>