<svg id="Layer_1" data-name="Layer 1" xmlns="http://www.w3.org/2000/svg" viewBox="0 0 324 172.8"><defs><style>.cls-1{fill:#ff9912;}.cls-2{fill:#f15a24;}</style></defs><path class="cls-1" d="M134.24,40.47H44.79a6.64,6.64,0,0,0-6.63,6.62v89.46a6.64,6.64,0,0,0,6.63,6.62h89.45a6.64,6.64,0,0,0,6.63-6.62V47.09A6.64,6.64,0,0,0,134.24,40.47ZM135.67,131a6.65,6.65,0,0,1-6.63,6.63H50.24A6.64,6.64,0,0,1,43.61,131V52.22a6.64,6.64,0,0,1,6.63-6.62H129a6.65,6.65,0,0,1,6.63,6.62Z"/><path class="cls-2" d="M143.94,29.33H35.09A8.09,8.09,0,0,0,27,37.4V146.24a8.08,8.08,0,0,0,8.06,8.06H143.94a8.08,8.08,0,0,0,8.06-8.06V37.4A8.09,8.09,0,0,0,143.94,29.33Zm1.73,110.19a8.09,8.09,0,0,1-8.06,8.07H41.72a8.09,8.09,0,0,1-8.06-8.07V43.64a8.08,8.08,0,0,1,8.06-8.06h95.89a8.08,8.08,0,0,1,8.06,8.06Z"/><path class="cls-2" d="M62.27,104.57c0,5.28,1.54,11.14,7.49,11.14,5.49,0,7.66-4.84,7.66-10.8,0-7.39-2.25-11.22-8.89-11.22h-3.4v-6.8h3.16c5.88,0,7.89-4.42,7.89-10.29,0-4.34-1.78-8.67-6.34-8.67-5.41,0-7,5.1-7,10.54H54.53c0-11.22,5.34-17.35,15.77-17.35C76.88,61.12,85,64.44,85,76.51c0,6.21-3.32,12.25-8.73,13.18V90c5.64.51,10,5.53,10,13.94,0,11.91-5.41,18.63-16.7,18.63-9.89,0-15.61-5.36-15.61-18Z"/><path class="cls-2" d="M115.3,75.75c0-3.49-1.47-7.82-5.88-7.82-8.27,0-8.73,12-8.73,20.74l.23.17c2.16-4.33,5.87-6.37,10.67-6.37,7.49,0,13.52,6,13.52,17.94,0,13.86-5.18,22.11-16.77,22.11-13.84,0-16.47-11.57-16.47-28.83,0-18,3-32.57,17.47-32.57,9.59,0,14.77,4.76,14.77,14.63Zm-6.27,40c5.42,0,7.27-5.86,7.27-12.92,0-8.33-2.24-13-7.27-13-6.41,0-7.57,6.21-7.57,13.43C101.46,110.19,103.85,115.71,109,115.71Z"/><path class="cls-2" d="M170.52,39.73h-7.14v-4h19v4h-7v26h-4.79Z"/><path class="cls-2" d="M185.47,35.7H190v9.83l.13.08a6.54,6.54,0,0,1,5.54-3.11c3.45,0,5.63,1.56,5.63,6.14v17h-4.54V50.19c0-2.94-.88-4.08-3.15-4.08-1.85,0-3.61,1.47-3.61,4.41V65.69h-4.54Z"/><path class="cls-2" d="M206.6,35.36h4.53V39.9H206.6Zm0,7.73h4.53v22.6H206.6Z"/><path class="cls-2" d="M216.42,43.09H221v3.53h.09c1-2.52,2.68-4.12,5.25-4.12a3.66,3.66,0,0,1,1.09.17v4.62A8.91,8.91,0,0,0,225.5,47c-2.06,0-4.54.92-4.54,5.12V65.69h-4.54Z"/><path class="cls-2" d="M228.35,43.09h3.11V36.66H236v6.43h3.69v3.36H236V59.94c0,1.76.5,2.39,2.06,2.39a8.05,8.05,0,0,0,1.63-.13v3.36a14.55,14.55,0,0,1-3.65.38c-3.07,0-4.58-.84-4.58-5.46v-14h-3.11Z"/><path class="cls-2" d="M245.78,43.09l3.91,17h.08l3.62-17h4.74l-6.21,23.44c-1.77,6.18-3.24,7-7.9,6.89a12.31,12.31,0,0,1-1.81-.17V69.64a9.33,9.33,0,0,0,1.47.17c1.56,0,2.57-.34,3.07-1.77l.59-1.85-6.43-23.1Z"/><path class="cls-2" d="M169.3,97.41v.75c0,3.66,1.6,5.51,4.92,5.51a4.25,4.25,0,0,0,4.53-4.37c0-3.15-1.59-4.54-4.28-5.34l-3.28-1.13c-4.37-1.68-6.26-4-6.26-8.24,0-5.46,3.7-8.48,9.33-8.48,7.69,0,8.49,4.79,8.49,7.9v.67H178v-.63c0-2.73-1.22-4.33-4.2-4.33-2.06,0-4,1.13-4,4.33,0,2.56,1.31,3.86,4.5,5.08l3.23,1.18c4.25,1.51,6.09,3.82,6.09,7.94,0,6.38-3.86,9-9.91,9-7.44,0-9.12-5-9.12-9.16v-.71Z"/><path class="cls-2" d="M188,76.36h4.54V80.9H188Zm0,7.73h4.54v22.6H188Z"/><path class="cls-2" d="M202,95l-5.84-10.88h5l3.52,7.48,3.7-7.48h4.87L207.31,95l6.14,11.72h-4.92l-3.95-8.36-4,8.36H195.8Z"/><path class="cls-2" d="M165.61,117.7h4.79v12h8.82v-12H184v30h-4.79V133.74H170.4v13.95h-4.79Z"/><path class="cls-2" d="M200.93,145h-.13a6.46,6.46,0,0,1-5.79,3.24c-3.36,0-5.63-1.56-5.63-7.4V125.09h4.54v16.22c0,2.52,1.13,3.36,3.06,3.36a3.56,3.56,0,0,0,3.7-3.79V125.09h4.53v22.6h-4.28Z"/><path class="cls-2" d="M210.29,125.09h4.29v2.65h.12a6.49,6.49,0,0,1,5.8-3.24c3.45,0,5.63,1.56,5.63,6.14v17.05h-4.54v-15.5c0-2.94-.88-4.08-3.15-4.08-1.85,0-3.61,1.47-3.61,4.41v15.17h-4.54Z"/><path class="cls-2" d="M242.76,144.92h-.08a4.84,4.84,0,0,1-5,3.36c-5.29,0-7.39-4.41-7.39-12.18,0-10,3.52-11.6,7-11.6a5.25,5.25,0,0,1,5.12,3.24h.09v-10H247v30h-4.28Zm-4.12-16.81c-2.6,0-3.53,2.11-3.53,8.2,0,5.12.68,8.36,3.83,8.36s3.82-3.2,3.82-8C242.76,131.22,242.13,128.11,238.64,128.11Z"/><path class="cls-2" d="M252.12,125.09h4.54v3.53h.09c1-2.52,2.68-4.12,5.25-4.12a3.66,3.66,0,0,1,1.09.17v4.62a8.91,8.91,0,0,0-1.89-.25c-2.06,0-4.54.92-4.54,5.12v13.53h-4.54Z"/><path class="cls-2" d="M269.72,137v1.3c0,3,.38,6.89,3.78,6.89,3.24,0,3.62-3.7,3.62-5h4.28c0,5-3,8.15-7.94,8.15-3.7,0-8.27-1.09-8.27-11.55,0-5.93,1.26-12.23,8.35-12.23,6.31,0,8,3.78,8,10.08V137Zm7.27-3.11v-1.22c0-2.86-.92-5-3.49-5-2.9,0-3.78,2.86-3.78,5.8v.46Z"/><path class="cls-2" d="M297.53,144.92h-.09a4.82,4.82,0,0,1-4.95,3.36c-5.3,0-7.4-4.41-7.4-12.18,0-10,3.53-11.6,7-11.6a5.26,5.26,0,0,1,5.12,3.24h.09v-10h4.53v30h-4.28Zm-4.12-16.81c-2.6,0-3.53,2.11-3.53,8.2,0,5.12.67,8.36,3.83,8.36s3.82-3.2,3.82-8C297.53,131.22,296.9,128.11,293.41,128.11Z"/></svg>