<?xml version="1.0" encoding="utf-8"?>
<!-- Generator: Adobe Illustrator 25.0.1, SVG Export Plug-In . SVG Version: 6.00 Build 0)  -->
<svg version="1.1" id="Layer_1" xmlns="http://www.w3.org/2000/svg" xmlns:xlink="http://www.w3.org/1999/xlink" x="0px" y="0px"
	 viewBox="0 0 324 144" style="enable-background:new 0 0 324 144;" xml:space="preserve">
<style type="text/css">
	.st0{fill:#FF9912;}
	.st1{fill:#F15A24;}
</style>
<path class="st0" d="M299.9,110.3c0-84.2-55.2-81.7-56.7-81.6L39.8,28.4V36h203.3v74.3H299.9z M250.6,39.3c0,0,40.1,0.5,40.1,65.4
	h-40.1V39.3z"/>
<polygon class="st0" points="299.9,113.9 36.2,113.9 36.2,28.5 28.9,28.5 28.6,121.6 36.2,121.6 36.2,121.5 299.9,121.5 "/>
<g>
	<rect x="100.3" y="79.2" class="st1" width="9.7" height="15.9"/>
	<path class="st1" d="M39.8,110.8h97.9V40.2H39.8V110.8z M92.9,55.7c0-3.1,1.5-4.7,4.5-4.7h15.3c3,0,4.6,1.5,4.6,4.7v10.7h-7.4v-8.9
		h-9.5v15.2h12.5c3,0,4.6,1.5,4.6,4.6L117.4,97c0,3.1-1.5,4.6-4.6,4.6H97.5c-3.1,0-4.6-1.5-4.6-4.6V55.7z M59.1,85.3h7.4v9.8h9.7
		V82.4L67,76v-1.6l9.3-6.3V57.5h-9.8v9.2h-7.4v-11c0-3.1,1.5-4.7,4.6-4.7h15.4c3,0,4.6,1.5,4.6,4.7v11.9c0.1,1.9-0.9,3.7-2.5,4.7
		l-4.7,3l4.8,3c1.6,0.9,2.6,2.7,2.5,4.6L83.7,97c0,3.1-1.5,4.6-4.6,4.6H63.6c-3,0-4.5-1.5-4.5-4.6V85.3z"/>
	<rect x="168.3" y="57.5" class="st1" width="10" height="37.6"/>
	<path class="st1" d="M141.5,39.8v70.6h97.9V39.8H141.5z M185.7,97c0,3.1-1.5,4.6-4.6,4.6h-15.8c-3,0-4.5-1.5-4.5-4.6V55.7
		c0-3.1,1.5-4.7,4.6-4.7h15.7c3,0,4.6,1.5,4.6,4.7V97z M220,97c0,3.1-1.5,4.6-4.6,4.6h-15.8c-3,0-4.5-1.5-4.5-4.6V55.7
		c0-3.1,1.5-4.7,4.6-4.7h15.7c3.1,0,4.6,1.5,4.6,4.7V97z"/>
	<rect x="202.6" y="57.5" class="st1" width="10" height="37.6"/>
</g>
</svg>
