<svg id="Layer_1" data-name="Layer 1" xmlns="http://www.w3.org/2000/svg" viewBox="0 0 360 360"><defs><style>.cls-1{fill:#ff9912;}.cls-2{fill:#f15a24;}</style></defs><path class="cls-1" d="M304.92,36.46H55.08A18.57,18.57,0,0,0,36.57,55V304.81a18.56,18.56,0,0,0,18.51,18.5H304.92a18.56,18.56,0,0,0,18.51-18.5V55A18.57,18.57,0,0,0,304.92,36.46Zm4,252.92a18.57,18.57,0,0,1-18.51,18.51H70.3a18.56,18.56,0,0,1-18.5-18.51V69.3A18.56,18.56,0,0,1,70.3,50.79H290.39A18.57,18.57,0,0,1,308.9,69.3Z"/><path class="cls-2" d="M332,5.37H28A22.59,22.59,0,0,0,5.48,27.89v304A22.59,22.59,0,0,0,28,354.41H332a22.59,22.59,0,0,0,22.52-22.52v-304A22.59,22.59,0,0,0,332,5.37Zm4.84,307.75a22.58,22.58,0,0,1-22.52,22.52H46.52A22.58,22.58,0,0,1,24,313.12V45.32A22.59,22.59,0,0,1,46.52,22.8h267.8a22.59,22.59,0,0,1,22.52,22.52Z"/><path class="cls-2" d="M103.89,215.51c0,14.72,4.32,31.11,21,31.11,15.33,0,21.37-13.54,21.37-30.16,0-20.66-6.26-31.35-24.83-31.35h-9.5v-19h8.85c16.41,0,22-12.35,22-28.73,0-12.12-5-24.23-17.71-24.23-15.11,0-19.43,14.25-19.43,29.45H82.3c0-31.35,14.9-48.45,44.05-48.45,18.35,0,41,9.27,41,43,0,17.34-9.28,34.2-24.4,36.81v.71c15.76,1.43,27.85,15.44,27.85,39,0,33.25-15.11,52-46.63,52-27.64,0-43.62-15-43.62-50.11Z"/><path class="cls-2" d="M252,135c0-9.74-4.1-21.85-16.4-21.85-23.11,0-24.4,33.49-24.4,57.95l.65.48c6-12.12,16.4-17.82,29.79-17.82,20.94,0,37.79,16.63,37.79,50.11,0,38.71-14.47,61.75-46.86,61.75-38.64,0-46-32.3-46-80.51,0-50.34,8.42-91,48.8-91,26.77,0,41.24,13.3,41.24,40.85ZM234.52,246.62c15.11,0,20.29-16.39,20.29-36.1,0-23.27-6.26-36.33-20.29-36.33-17.92,0-21.16,17.33-21.16,37.52C213.36,231.18,220.05,246.62,234.52,246.62Z"/></svg>