<svg id="Layer_1" data-name="Layer 1" xmlns="http://www.w3.org/2000/svg" viewBox="0 0 360 360"><defs><style>.cls-1{fill:#fbff4a;}.cls-2{fill:#754c24;}.cls-3{fill:#d9e021;}.cls-4{fill:#006837;}.cls-5{fill:#22b5c4;}.cls-6{fill:#c69c6d;}.cls-7{fill:#fff;}.cls-8{fill:#512e12;}</style></defs><rect class="cls-1" width="359.95" height="359.95"/><polygon class="cls-2" points="45.81 62.27 63.61 293.03 292 240.47 250.97 31.32 45.81 62.27"/><polygon class="cls-3" points="55.1 69.26 73.68 280.21 280.39 234 241.68 40.61 55.1 69.26"/><path class="cls-4" d="M66.35,197s18.26-32.91,27.17-34.86,109.54,12.41,123.87,9.29,12-43.79,22.84-53.45,15.85-5.43,15.85-5.43L280.39,234,73.68,280.21Z"/><polygon class="cls-5" points="113.26 127.36 115.97 151.71 110.55 175.32 103.58 205.66 123.32 215.66 138.42 212.87 146.29 163.26 169 171.47 173.26 188.87 201.81 205.66 217.39 203.97 225.13 192.74 195.32 144.74 187.97 113.7 164.35 109.13 113.26 127.36"/><polygon class="cls-2" points="154.97 330.15 233.16 297.64 248.65 308.16 164.26 340.22 154.97 330.15"/><path class="cls-4" d="M233.16,297.64s32.52-27.14,53.42-20.54,32.52-1.87,32.52-1.87S275.3,314,248.65,308.16Z"/><path class="cls-6" d="M233.16,297.64l15.49,10.52c12.29,3.16,27.48-4.74,27.48-4.74l2.42-4.23V292l-12.78,1,3.88-7.8H251.44S236.1,293.76,233.16,297.64Z"/><polyline class="cls-7" points="113.26 127.36 123.45 144.4 121 162.18 150.56 175.32 187.97 164.1 186.89 144.4 181.52 131.45 187.97 113.7"/><path class="cls-5" d="M113.26,127.36,133,130.81l15.87-7.22s13.94,3.38,15.48,3.77S188,113.7,188,113.7,181.39,91,165.9,94.81,110.94,85.59,113.26,127.36Z"/><polygon class="cls-5" points="138.42 155.58 154.97 157.9 180 147.45 154.97 162.18 138.42 155.58"/><ellipse class="cls-5" cx="135.13" cy="139.8" rx="3.29" ry="4.71"/><polygon class="cls-5" points="151.34 139.8 155.06 149 148.48 149 151.34 139.8"/><ellipse class="cls-5" cx="165.71" cy="135.51" rx="3.29" ry="4.71"/><polygon class="cls-7" points="143.94 172.38 141.13 195.06 176.35 190.03 172.87 165.26 143.94 172.38"/><polygon class="cls-5" points="131.84 189.26 181.77 185.48 200.82 203.54 205.44 250.75 115.8 270.79 131.84 189.26"/><polygon class="cls-7" points="192.22 214.82 186.89 225.21 193.86 237.6 216.12 228.21 201.51 200.82 195.89 205.08 200.83 216.45 192.22 214.82"/><polygon class="cls-7" points="131.59 222.38 131.48 233.75 120.06 242.22 103.58 224.56 129.37 207.84 131.49 211.7 123.31 219.18 131.59 222.38"/><ellipse class="cls-7" cx="211.75" cy="66.94" rx="24.73" ry="7.74" transform="translate(-10.31 64.07) rotate(-16.8)"/><ellipse class="cls-7" cx="226.93" cy="86.67" rx="18.5" ry="5.79" transform="translate(-15.36 69.3) rotate(-16.8)"/><ellipse class="cls-7" cx="97.33" cy="86.67" rx="31.52" ry="9.87" transform="translate(-15.01 20.61) rotate(-11.23)"/><polygon class="cls-8" points="63.61 293.03 71.06 300.23 285.77 252.69 292 240.47 63.61 293.03"/><path class="cls-4" d="M285.9,98.68s15.87,29,15.1,58.06,21.29-36.39-4.26-55.74S285.9,98.68,285.9,98.68Z"/><path class="cls-5" d="M320.24,129.24s2.42,19.5-4.35,35.35,19.7-15.43,9.82-31.7S320.24,129.24,320.24,129.24Z"/><path class="cls-3" d="M305.8,85.51s14,13.78,18.54,30.41,5.86-24.33-12-30.95S305.8,85.51,305.8,85.51Z"/></svg>