<svg id="Layer_1" data-name="Layer 1" xmlns="http://www.w3.org/2000/svg" viewBox="0 0 360 360"><defs><style>.cls-1{fill:#599e5f;}.cls-2{fill:#ffd039;}.cls-3{fill:#f94000;}</style></defs><rect class="cls-1" width="360.23" height="360.23"/><polygon class="cls-2" points="256.82 125.16 213.59 103.28 129.81 106.49 95.66 126.87 79.02 189.24 78.58 208.41 109.53 282.58 143.15 302.33 153.83 297.77 153.83 331.87 233.34 321.03 223.1 250.69 248.28 196.14 256.82 125.16"/><polygon class="cls-3" points="94.06 158.36 75.38 117.8 90.86 66.46 137.28 47.25 222.66 39.78 306.98 56.33 302.18 121.43 281.9 188.67 288.3 222.82 316.05 222.82 304.31 239.36 278.16 248.1 302.71 270.25 271.23 267.11 274.96 282.05 237.07 270.25 221.08 254.29 249.88 191.33 228.53 124.63 156.5 111.29 94.06 158.36"/><polygon class="cls-3" points="91.55 239.77 102.33 237.53 124.48 242.56 167.7 232.76 127.41 257.5 94.68 247.08 91.55 239.77"/><polygon class="cls-3" points="157.03 156.11 173.04 142.77 186.38 156.11 207.46 140.64 205.06 165.19 157.03 156.11"/><ellipse class="cls-3" cx="174.97" cy="175.67" rx="7.27" ry="8.35"/><ellipse class="cls-3" cx="84.99" cy="167.32" rx="3.64" ry="4.17"/><polygon class="cls-3" points="91.55 160.41 81.29 151.86 72.73 160.41 59.21 150.49 60.75 166.23 91.55 160.41"/><polyline class="cls-3" points="102.06 175.67 93.53 198.18 97.8 214.18 106.33 214.18 111.14 205.49"/><path class="cls-3" d="M153.83,331.87s-64.77,17-65.21,17.55-15.91,10.81-15.91,10.81l236.4-.24-75.77-39"/></svg>