<svg id="Layer_1" data-name="Layer 1" xmlns="http://www.w3.org/2000/svg" viewBox="0 0 360 360"><defs><style>.cls-1{fill:#3a3a21;}.cls-2{fill:#232230;}.cls-3{fill:#f99300;}</style></defs><rect class="cls-1" y="0.23" width="360" height="360"/><polygon class="cls-2" points="134.82 256.29 104.41 316.17 255.59 316.17 216.63 242.1 134.82 256.29"/><polygon class="cls-2" points="101.33 74.55 85.52 118.83 97.13 179.26 85.52 256.3 157.52 263.52 234.94 253.08 262.81 65.45 127.32 50.74 101.33 74.55"/><polygon class="cls-3" points="104.87 100.18 57.65 73.03 104.87 21.16 137.39 32.77 181.52 26.55 241.9 53.67 266.68 35.87 302.29 68.38 283.71 109.67 302.29 151.22 280.61 188.38 289.9 248.27 331.71 265.99 248.1 289.44 210.94 281.33 197.77 251.49 238.03 210.83 230.29 167.87 212.48 141.38 234.94 100.18 194.68 86.19 104.87 100.18"/><polygon class="cls-3" points="167.71 129.38 134.23 132.65 201.77 133.62 201.77 116.07 167.71 129.38"/><ellipse class="cls-3" cx="166.42" cy="142.31" rx="9.81" ry="5.58"/><path class="cls-3" d="M96.73,124.85C97.18,125.33,77,171.3,77,171.3l8.58,25.54,26-9.09,2.74-41.16"/><polygon class="cls-3" points="95.71 219.45 124.61 223.79 151.97 221.62 185 211.97 144.23 233.64 119.97 230.55 89.55 229.52 91.41 217.18 95.71 219.45"/><polygon class="cls-3" points="25.16 360.23 34.45 309 109.77 293.74 164.52 289.44 319.87 302.81 334.84 360.23 25.16 360.23"/><polygon class="cls-2" points="141.28 319.41 155.41 315.09 169.14 321.24 206.41 311.27 206.41 345.3 170.34 332.75 153.44 336.67 141.28 330.79 110.71 342.95 114.02 304.37 141.28 319.41"/></svg>