<svg id="Layer_1" data-name="Layer 1" xmlns="http://www.w3.org/2000/svg" viewBox="0 0 360 360"><defs><style>.cls-1{fill:#2e233f;}.cls-2{fill:#a7c671;}.cls-3{fill:blue;}</style></defs><rect class="cls-1" width="360" height="360.23"/><polygon class="cls-2" points="194.03 86.85 38.16 234.98 282.81 198.34 327.71 132.27 194.03 86.85"/><polygon class="cls-3" points="157.67 121.4 94.98 138.16 193 30.81 339.06 115.45 339.06 140.64 317.24 147.68 327.71 132.27 229.39 112.59 157.67 121.4"/><polygon class="cls-3" points="167.19 147.68 256.48 135.58 169.26 152.91 167.19 147.68"/><polygon class="cls-3" points="38.16 234.98 118.16 200.61 207.59 171.49 79.85 228.74 38.16 234.98"/><polygon class="cls-3" points="128.57 149.06 61.39 171.49 118.16 175.67 128.57 149.06"/><polyline class="cls-2" points="282.81 198.34 231.19 282.05 105.77 284.23 180 213.74"/><polyline class="cls-3" points="105.77 284.23 14.94 296.1 0 321.03 0 360 360 360.23 360 312.36 231.19 282.05"/><ellipse class="cls-3" cx="183.84" cy="158.83" rx="10.45" ry="2.09"/><polygon class="cls-3" points="157.67 121.4 264.48 158.83 260.46 118.81 221.13 89.24 157.67 121.4"/><polygon class="cls-3" points="264.48 140.64 321 147.68 332.61 130.42 282.81 114.16 256.48 108.07 252.87 135.58 264.48 140.64"/></svg>