<svg id="Layer_1" data-name="Layer 1" xmlns="http://www.w3.org/2000/svg" viewBox="0 0 360 360"><defs><style>.cls-1{fill:#9fccd3;}.cls-2{fill:#ff0;}.cls-3{fill:#5e2182;}</style></defs><rect class="cls-1" width="360" height="360"/><polyline class="cls-2" points="142.7 263.99 131.86 319.15 237.15 319.15 213.93 245.47"/><polygon class="cls-2" points="72.25 123.45 69.15 153.51 77.67 224.94 103.22 269.82 157.41 279.13 217.8 262.08 265.8 116.48 166.99 62.05 72.25 123.45"/><polygon class="cls-3" points="220.12 131.97 162.05 76.28 55.99 135.84 63.73 82.52 133.41 42.16 282.83 58.4 296.76 154.68 259.6 249.65 326.18 295.6 232.5 306.03 206.96 253.6 239.47 139.31 220.12 131.97"/><polygon class="cls-3" points="128.12 313.32 69.15 360.23 307.6 360.23 237.15 319.15 128.12 313.32"/><circle class="cls-3" cx="166.1" cy="166.6" r="5.25"/><circle class="cls-3" cx="74.7" cy="170.59" r="4.11"/><polyline class="cls-3" points="58.25 166.48 59.24 165.51 71.39 153.7 91.15 163.77 71.39 147.51"/><polyline class="cls-3" points="144.12 165.89 146.16 164.82 171 151.73 197.71 176.98 173.9 141.88"/><polygon class="cls-3" points="118.31 175.21 101.28 195.72 118.31 204.24 118.31 175.21"/><polygon class="cls-3" points="96.31 238.03 123.02 241.13 187.67 222.55 191.93 215.19 96.31 238.03"/></svg>