<svg id="Layer_1" data-name="Layer 1" xmlns="http://www.w3.org/2000/svg" viewBox="0 0 360 360"><defs><style>.cls-1{fill:#ed8662;}.cls-2{fill:#b20000;}.cls-3{fill:aqua;}</style></defs><rect class="cls-1" width="360" height="360"/><polygon class="cls-2" points="124.36 62.37 56.95 221.74 131.05 312.37 271.68 247.63 292.66 117.72 180.61 47.63 124.36 62.37"/><polygon class="cls-2" points="258.58 250.71 283.58 335.54 139.83 350.27 148.31 273.93 258.58 250.71"/><polygon class="cls-3" points="141.96 331.09 56.95 360 360 360 278.84 319.46 141.96 331.09"/><path class="cls-3" d="M249.87,156s-32.14-17-76.34,0"/><rect class="cls-3" x="206.35" y="157.86" width="7.14" height="7.14" rx="3.57"/><polyline class="cls-3" points="60.52 221.74 258.29 217.23 243.11 231.07"/><polyline class="cls-3" points="136.41 129.73 56.95 193.13 121.23 190"/><polygon class="cls-3" points="131.05 312.37 271.68 247.63 112.86 290.11 131.05 312.37"/><polygon class="cls-3" points="124.36 62.37 100.25 15 312.3 70.8 285.6 161.43 258.29 122.59 180 69.02 124.36 62.37"/></svg>