<svg id="Layer_1" data-name="Layer 1" xmlns="http://www.w3.org/2000/svg" viewBox="0 0 360 360"><defs><style>.cls-1{fill:#ead88c;}.cls-2{fill:#e50e70;}.cls-3{fill:#070751;}</style></defs><rect class="cls-1" width="360" height="359.95"/><polygon class="cls-2" points="96.41 59.66 276.02 59.66 271.89 146.53 95.38 146.53 96.41 59.66"/><polygon class="cls-3" points="95.38 146.53 85.06 233.13 116.02 233.13 116.02 270.84 266.73 270.84 271.89 146.53 95.38 146.53"/><rect class="cls-3" x="148.02" y="270.84" width="118.71" height="43.84"/><polygon class="cls-2" points="0 315.19 360 314.63 360 359.95 0 360.52 0 315.19"/><polygon class="cls-2" points="118.61 247.25 201.19 247.25 201.19 254.81 120.67 254.81 118.61 247.25"/><rect class="cls-2" x="148.02" y="159.7" width="92.39" height="10.47"/><rect class="cls-2" x="151.64" y="177.39" width="33.03" height="11.15"/><polygon class="cls-2" points="85.06 233.13 93.19 164.93 118.61 166.49 116.02 233.13 85.06 233.13"/><rect class="cls-3" x="255.35" y="170.17" width="33.09" height="71.94"/></svg>