<svg id="Layer_1" data-name="Layer 1" xmlns="http://www.w3.org/2000/svg" viewBox="0 0 360 360"><defs><style>.cls-1{fill:#252f54;}.cls-2{fill:#916b3d;}.cls-3{fill:#e0b12b;}.cls-4{fill:#b72718;}.cls-5{fill:#7c4845;}</style></defs><rect class="cls-1" width="360" height="360"/><path class="cls-2" d="M55.57,122.35S134.67,41,204.7,40.66c38.38-.16,18.1,21.77,2,28.21-17.45,7-118.14,70-132.76,84.14S44,145.86,55.57,122.35Z"/><path class="cls-3" d="M67,157.2s28.59,6.12,29.09,13.36.33,39.52,6.8,37.63,8.26-19.36,10.93-15.36.29,91,8.31,85.39,4.54-64.38,6.14-67.35,22.81,27.88,21.44,37.61,13,18.07,16.39,15,13.1-1.35,23.81,14.69,34,15.12,36.46,15.51,12.09,9.92,22.89,18.77,23.19,26.12,25.17-2.34c1.81-25.92-5.82-15.27-3.45-25.56,2.05-8.91,1.09-15.32-3.14-24.5s-12.62-35-16.45-55.74,1.69-36.28-9.4-66.61S221.51,59,221.51,59L125.43,82.82Z"/><ellipse class="cls-4" cx="126.8" cy="139.26" rx="19.38" ry="13.98" transform="translate(-22.87 24.93) rotate(-10.3)"/><ellipse class="cls-4" cx="225.39" cy="177.25" rx="15.37" ry="21.32" transform="translate(11.22 367.91) rotate(-79.86)"/><ellipse class="cls-4" cx="198.15" cy="245.29" rx="21.32" ry="15.37" transform="translate(-98.19 137.54) rotate(-31.09)"/><ellipse class="cls-4" cx="199.51" cy="96.87" rx="18.56" ry="25.74" transform="translate(69.02 276.21) rotate(-79.86)"/><path class="cls-5" d="M185.71,206.58l-18.21-8.64a46.74,46.74,0,0,0-4.14,18.21c-.06,9.86-25.17-8.3-10.78-33.87s30.7-7.73,30.7-7.73l-11.37,15.24,17.43,7.72Z"/><path class="cls-5" d="M233.65,254.64,244,260.55A27.62,27.62,0,0,0,247.28,250c.47-5.83,14.51,6,4.88,20.5s-18.49,3.21-18.49,3.21l7.39-8.5-10-5.34Z"/><path class="cls-5" d="M207.84,139.9v-8.35a17.38,17.38,0,0,0-7.12,1.75c-3.49,1.77-1.27-10.88,10.16-10.15s7.86,10,7.86,10l-7.28-1.47.18,7.89Z"/><path class="cls-5" d="M155.83,111.73l-7-3.77a18.34,18.34,0,0,0-2,7.05c-.23,3.87-9.69-3.79-3.5-13.51s12.2-2.38,12.2-2.38l-4.78,5.73,6.67,3.4Z"/></svg>