<svg id="Layer_1" data-name="Layer 1" xmlns="http://www.w3.org/2000/svg" viewBox="0 0 360 360"><defs><style>.cls-1{fill:#c4c4c4;}.cls-2{fill:#121216;}.cls-3{fill:#2f2f35;}.cls-4{fill:#3b3b44;}.cls-5{fill:#26262d;}.cls-6{fill:red;}.cls-7{fill:#ff0;}</style></defs><rect class="cls-1" width="361.08" height="361.08"/><path class="cls-2" d="M252.33,233.64s59.73,26,39.51,126.31L60.26,360S20,301.13,64.13,243.45Z"/><path class="cls-3" d="M108.87,266.53s-18.81,23.76.94,93.42L60.26,360s-40.65-60,3.87-116.55Z"/><polygon class="cls-4" points="45.65 160.41 125.64 185.48 288.74 139.8 291.84 222.29 124.61 270.35 45.65 251.19 45.65 160.41"/><polygon points="125.64 185.48 106.55 165.26 212.87 124.58 288.74 139.8 274.81 162.39 125.64 185.48"/><path class="cls-5" d="M45.65,160.41s120.25-69.78,176-47.82,67.09,27.21,67.09,27.21S180.87,128,125.65,185.48Z"/><polygon points="125.64 185.48 124.61 270.35 291.84 222.29 288.74 139.8 125.64 185.48"/><path class="cls-4" d="M154.82,127.67C154,126,142.16,60.23,142.16,60.23h19.36l14.71,64.7A8.71,8.71,0,0,1,170,135.34C165,136.57,158.81,136,154.82,127.67Z"/><path class="cls-5" d="M150.68,70l9.56,64.14s4.08,5,11.34,2.19,5.16-10.07,5.16-10.07L163,66.88H150.68Z"/><ellipse class="cls-6" cx="149.26" cy="46.55" rx="27.48" ry="23.48"/><polygon class="cls-6" points="134.19 193.9 204.26 174.16 204.26 186.94 134.19 202.42 134.19 193.9"/><path class="cls-6" d="M219,169c1.16.18,61.16-6.77,61.16-6.77V176.1L219,182.68Z"/><polygon class="cls-7" points="138.06 225.65 280.13 198.94 280.13 214.03 137.29 252.35 138.06 225.65"/><ellipse class="cls-3" cx="225.08" cy="313.2" rx="39.01" ry="35.18"/><ellipse class="cls-2" cx="236.18" cy="316.56" rx="19.95" ry="18.55"/><ellipse cx="226.43" cy="317.05" rx="19.95" ry="21.12"/><path class="cls-4" d="M234,287.43c-17.84,0-32.31,13-32.31,29.13s14.47,29.13,32.31,29.13,32.3-13,32.3-29.13S251.82,287.43,234,287.43Zm0,47.68c-11,0-19.95-8.3-19.95-18.55S223,298,234,298s20,8.3,20,18.55S245,335.11,234,335.11Z"/><polygon class="cls-7" points="192.48 43.71 225.29 27.71 254.19 43.71 286.68 27.71 256.77 53.52 225.29 37.52 192.48 43.71"/><polygon class="cls-7" points="106.55 47.84 82.29 38.55 65.26 53.77 30.16 42.68 65.77 60.23 85.39 47.32 106.55 47.84"/></svg>