<svg id="Layer_1" data-name="Layer 1" xmlns="http://www.w3.org/2000/svg" viewBox="0 0 360 360"><defs><style>.cls-1{fill:#91c49a;}.cls-2{fill:#8e4c16;}.cls-3{fill:#e2e2e2;}.cls-4{fill:#703910;}.cls-5{fill:#72a078;}</style></defs><rect class="cls-1" width="360" height="360"/><path class="cls-2" d="M61.75,286.64C61,246.58,70.35,73.08,289,83.08a9,9,0,0,1,8.58,8.56c1.73,40.52-3.33,218.33-227.5,203.76A8.93,8.93,0,0,1,61.75,286.64Z"/><path class="cls-3" d="M220.15,101.25h-4.39c-87.55,8.15-122.71,92.42-130,112.85a23.55,23.55,0,0,0-1.17,11.7,14.73,14.73,0,0,0,3,7.17,5.16,5.16,0,0,0,8.81-1.62c7.64-21.43,43.79-107.88,133-119.26l1.87-.27A9.23,9.23,0,0,0,237,108.6C239.36,105.67,239.21,101.56,220.15,101.25Z"/><path class="cls-3" d="M212.16,106.47,225.09,122a4.31,4.31,0,0,1-1.26,6.56l-4.79,2.6a4.32,4.32,0,0,1-5.61-1.33l-18.89-27.28a4.33,4.33,0,0,1,2-6.48l.49-.19a4.3,4.3,0,0,1,4.49.83l10.26,9.35A4.07,4.07,0,0,1,212.16,106.47Z"/><path class="cls-3" d="M169.45,124l15.12,13.4a4.31,4.31,0,0,1-.26,6.67l-4.35,3.3a4.31,4.31,0,0,1-5.74-.48l-22.77-24.13a4.32,4.32,0,0,1,1-6.7l.46-.27a4.31,4.31,0,0,1,4.56.15l11.54,7.7A4.17,4.17,0,0,1,169.45,124Z"/><path class="cls-3" d="M128.17,158.51l16.3,11.93a4.31,4.31,0,0,1,.37,6.66l-4,3.69a4.3,4.3,0,0,1-5.76.06L110.12,159a4.31,4.31,0,0,1,.34-6.75l.43-.31a4.32,4.32,0,0,1,4.56-.29l12.22,6.59A5.19,5.19,0,0,1,128.17,158.51Z"/><path class="cls-3" d="M101.31,200.53l17.53,10a4.31,4.31,0,0,1,1.11,6.58l-3.59,4.11a4.31,4.31,0,0,1-5.72.71L83.43,203a4.32,4.32,0,0,1-.42-6.76l.4-.35a4.3,4.3,0,0,1,4.49-.79l12.88,5.18A5.2,5.2,0,0,1,101.31,200.53Z"/><path class="cls-4" d="M68.42,295.13C305.34,310.06,300,117.39,297.77,91.11a8.6,8.6,0,0,0-1.51-3.75C275,269.24,63.06,291.13,63.06,291.13S65.13,294.92,68.42,295.13Z"/><path class="cls-5" d="M137.25,337.42s190.7-30.13,187.6-143C324.85,194.39,337.52,327.82,137.25,337.42Z"/><path class="cls-5" d="M241.17,47.42S48.11,47.05,33.33,159C33.33,159,41.89,25.26,241.17,47.42Z"/></svg>